<svg width="30" height="30" viewBox="0 0 116 112" fill="none" xmlns="http://www.w3.org/2000/svg">
<path fill-rule="evenodd" clip-rule="evenodd" d="M69.7557 107.459C62.746 112.552 53.254 112.552 46.2443 107.459L8.88808 80.3181C1.87833 75.2252 -1.05483 66.1979 1.62266 57.9574L15.8915 14.0426C18.5689 5.80212 26.2481 0.222916 34.9126 0.222916H81.0874C89.7519 0.222916 97.431 5.80211 100.109 14.0426L114.377 57.9574C117.055 66.1979 114.122 75.2252 107.112 80.3181L69.7557 107.459ZM22.6601 60.255L45.6101 68.58V60.93L31.9677 56.25L45.6101 51.57V43.92L22.6601 52.245V60.255ZM61.1403 34.11L46.2903 76.5H55.2903L70.1403 34.11H61.1403ZM70.3847 60.93V68.58L93.3347 60.255V52.245L70.3847 43.92V51.57L84.027 56.25L70.3847 60.93Z" fill="url(#paint0_linear_1_11)"/>
<defs>
<linearGradient id="paint0_linear_1_11" x1="0.999995" y1="3.93452e-06" x2="115" y2="111" gradientUnits="userSpaceOnUse">
<stop stop-color="#54A1F4"/>
<stop offset="1" stop-color="#174AE4"/>
</linearGradient>
</defs>
</svg>
